<svg width="67" height="46" viewBox="0 0 67 46" fill="none" xmlns="http://www.w3.org/2000/svg">
<path d="M41.6 18.72C41.44 19.0933 41.2 19.5467 40.88 20.08C40.56 20.6133 40.4 21.1467 40.4 21.68C40.4 21.7867 40.4533 21.84 40.56 21.84C40.6667 21.84 41.0133 21.6 41.6 21.12C42.1867 20.5867 42.88 19.92 43.68 19.12C44.48 18.2667 45.3333 17.3333 46.24 16.32C47.1467 15.3067 47.9733 14.2933 48.72 13.28C49.52 12.2667 50.16 11.3067 50.64 10.4C51.1733 9.49333 51.4667 8.72 51.52 8.08V7.36C51.52 7.14667 51.5467 6.98667 51.6 6.88C51.7067 5.17333 52.3467 3.73333 53.52 2.56C54.6933 1.33333 56.24 0.719997 58.16 0.719997C59.28 0.719997 60.2667 0.773332 61.12 0.88C61.9733 0.933333 62.7467 1.14666 63.44 1.52C64.1333 1.84 64.7467 2.34667 65.28 3.04C65.8133 3.73333 66.2933 4.66666 66.72 5.84V5.76C66.7733 5.92 66.8 6.18667 66.8 6.56C66.7467 7.46666 66.4 8.72 65.76 10.32C65.1733 11.92 64.3733 13.7067 63.36 15.68C62.4 17.6533 61.28 19.76 60 22C58.7733 24.1867 57.4933 26.32 56.16 28.4C54.88 30.48 53.6 32.4533 52.32 34.32C51.0933 36.1333 50 37.68 49.04 38.96C48.24 39.8667 47.3067 40.6933 46.24 41.44C45.1733 42.1333 44.0267 42.72 42.8 43.2C41.6267 43.68 40.4 44.0533 39.12 44.32C37.8933 44.5867 36.6933 44.72 35.52 44.72C31.9467 44.72 29.36 43.68 27.76 41.6C26.16 39.4667 25.44 36.56 25.6 32.88C25.6533 32.5067 25.68 32.1067 25.68 31.68C25.7333 31.2 25.7867 30.7467 25.84 30.32L25.12 30.16C24.2667 32.0267 23.1733 33.8667 21.84 35.68C20.5067 37.4933 18.9867 39.1467 17.28 40.64C15.5733 42.08 13.7067 43.2533 11.68 44.16C9.70667 45.0667 7.62667 45.52 5.44 45.52C4.37333 45.52 3.49333 45.3867 2.8 45.12C2.16 44.9067 1.62667 44.5867 1.2 44.16C0.826667 43.7867 0.56 43.3333 0.4 42.8C0.293333 42.32 0.24 41.8133 0.24 41.28C0.666667 39.6267 1.22667 37.8133 1.92 35.84C2.66667 33.8667 3.46667 31.9733 4.32 30.16C5.06667 28.56 5.89333 26.6667 6.8 24.48C7.76 22.2933 8.66667 20.1333 9.52 18C10.4267 15.8133 11.2267 13.8133 11.92 12C12.6667 10.1867 13.2267 8.85333 13.6 8C14.1867 7.14667 15.0133 6.50667 16.08 6.08C17.1467 5.6 18.16 5.36 19.12 5.36C20.24 5.36 21.12 5.73333 21.76 6.48C22.4533 7.17333 22.96 8.05333 23.28 9.12C23.6533 10.1333 23.8933 11.2 24 12.32C24.1067 13.44 24.1333 14.4267 24.08 15.28C24.0267 15.8667 23.9467 16.48 23.84 17.12C23.7333 17.7067 23.6533 18.32 23.6 18.96C25.7333 16.72 27.52 15.0667 28.96 14C30.4 12.88 31.8667 12.0533 33.36 11.52L34.16 11.28C34.64 11.12 35.0667 10.9867 35.44 10.88C35.8133 10.72 36.24 10.6133 36.72 10.56L38.08 10.4C38.6667 10.2933 39.28 10.2133 39.92 10.16C40.6133 10.0533 41.2533 10 41.84 10C42.4267 10 42.9333 10.08 43.36 10.24C43.7867 10.4 44 10.7467 44 11.28C43.9467 11.3867 43.8933 11.5467 43.84 11.76C43.84 11.92 43.7867 12.1067 43.68 12.32L41.6 18.72Z" fill="#FFC876"/>
</svg>
